<svg xmlns="http://www.w3.org/2000/svg" width="21" height="30" viewBox="0 0 21 30">
  <metadata><?xpacket begin="﻿" id="W5M0MpCehiHzreSzNTczkc9d"?>
<x:xmpmeta xmlns:x="adobe:ns:meta/" x:xmptk="Adobe XMP Core 5.6-c140 79.160451, 2017/05/06-01:08:21        ">
   <rdf:RDF xmlns:rdf="http://www.w3.org/1999/02/22-rdf-syntax-ns#">
      <rdf:Description rdf:about=""/>
   </rdf:RDF>
</x:xmpmeta>
                                                                                                    
                                                                                                    
                                                                                                    
                                                                                                    
                                                                                                    
                                                                                                    
                                                                                                    
                                                                                                    
                                                                                                    
                                                                                                    
                                                                                                    
                                                                                                    
                                                                                                    
                                                                                                    
                                                                                                    
                                                                                                    
                                                                                                    
                                                                                                    
                                                                                                    
                                                                                                    
                           
<?xpacket end="w"?></metadata>
<defs>
    <style>
      .cls-1 {
        fill: #fff;
        fill-rule: evenodd;
      }
    </style>
  </defs>
  <path id="arrow_up" class="cls-1" d="M1631,3585.38a0.522,0.522,0,0,1-.17.39,0.574,0.574,0,0,1-.79,0l-8.99-8.91v27.61a0.549,0.549,0,0,1-.56.54,0.538,0.538,0,0,1-.54-0.54v-27.61l-9.01,8.91a0.552,0.552,0,0,1-.39.16,0.529,0.529,0,0,1-.38-0.16,0.522,0.522,0,0,1-.17-0.39,0.529,0.529,0,0,1,.16-0.38l9.96-9.85a0.531,0.531,0,0,1,.76,0l9.95,9.85A0.5,0.5,0,0,1,1631,3585.38Z" transform="translate(-1610 -3575)"/>
</svg>
