<svg xmlns="http://www.w3.org/2000/svg" width="21" height="20" viewBox="0 0 21 20">
  <metadata><?xpacket begin="﻿" id="W5M0MpCehiHzreSzNTczkc9d"?>
<x:xmpmeta xmlns:x="adobe:ns:meta/" x:xmptk="Adobe XMP Core 5.6-c140 79.160451, 2017/05/06-01:08:21        ">
   <rdf:RDF xmlns:rdf="http://www.w3.org/1999/02/22-rdf-syntax-ns#">
      <rdf:Description rdf:about=""/>
   </rdf:RDF>
</x:xmpmeta>
                                                                                                    
                                                                                                    
                                                                                                    
                                                                                                    
                                                                                                    
                                                                                                    
                                                                                                    
                                                                                                    
                                                                                                    
                                                                                                    
                                                                                                    
                                                                                                    
                                                                                                    
                                                                                                    
                                                                                                    
                                                                                                    
                                                                                                    
                                                                                                    
                                                                                                    
                                                                                                    
                           
<?xpacket end="w"?></metadata>
<defs>
    <style>
      .cls-1 {
        fill: #fff;
        fill-rule: evenodd;
      }
    </style>
  </defs>
  <path id="best" class="cls-1" d="M480.98,1806.96c-0.306-3.45-2.695-5.96-5.685-5.96a5.63,5.63,0,0,0-4.842,2.86,5.413,5.413,0,0,0-4.725-2.86c-2.99,0-5.379,2.51-5.685,5.96a6.289,6.289,0,0,0,.178,2.27,9.767,9.767,0,0,0,2.909,4.97l7.319,6.8,7.444-6.8a9.758,9.758,0,0,0,2.908-4.97A6.3,6.3,0,0,0,480.98,1806.96Zm-0.965,2.08a8.947,8.947,0,0,1-2.663,4.55l-6.9,6.3-6.78-6.3a8.937,8.937,0,0,1-2.665-4.55,5.509,5.509,0,0,1-.168-1.95l0.006-.04c0.262-3.03,2.315-5.22,4.882-5.22a4.738,4.738,0,0,1,4.351,3.11l0.372,0.9,0.372-.9a4.882,4.882,0,0,1,4.472-3.11c2.566,0,4.62,2.2,4.887,5.26A5.49,5.49,0,0,1,480.015,1809.04Z" transform="translate(-460 -1801)"/>
</svg>
