<svg xmlns="http://www.w3.org/2000/svg" width="30" height="20" viewBox="0 0 30 20">
  <metadata><?xpacket begin="﻿" id="W5M0MpCehiHzreSzNTczkc9d"?>
<x:xmpmeta xmlns:x="adobe:ns:meta/" x:xmptk="Adobe XMP Core 5.6-c140 79.160451, 2017/05/06-01:08:21        ">
   <rdf:RDF xmlns:rdf="http://www.w3.org/1999/02/22-rdf-syntax-ns#">
      <rdf:Description rdf:about=""/>
   </rdf:RDF>
</x:xmpmeta>
                                                                                                    
                                                                                                    
                                                                                                    
                                                                                                    
                                                                                                    
                                                                                                    
                                                                                                    
                                                                                                    
                                                                                                    
                                                                                                    
                                                                                                    
                                                                                                    
                                                                                                    
                                                                                                    
                                                                                                    
                                                                                                    
                                                                                                    
                                                                                                    
                                                                                                    
                                                                                                    
                           
<?xpacket end="w"?></metadata>
<defs>
    <style>
      .cls-1 {
        fill: #034488;
        fill-rule: evenodd;
      }
    </style>
  </defs>
  <path id="card" class="cls-1" d="M1272.81,1100a2.834,2.834,0,0,1-2.81-2.85v-14.3a2.834,2.834,0,0,1,2.81-2.85h24.38a2.754,2.754,0,0,1,1.98.84,2.813,2.813,0,0,1,.83,2.01v14.3a2.834,2.834,0,0,1-2.81,2.85h-24.38Zm-2.31-2.85a2.33,2.33,0,0,0,2.31,2.34h24.38a2.33,2.33,0,0,0,2.31-2.34v-8.85h-29v8.85Zm0-9.35h29v-3.4h-29v3.4Zm2.31-7.29a2.33,2.33,0,0,0-2.31,2.34v1.05h29v-1.05a2.33,2.33,0,0,0-2.31-2.34h-24.38Zm1.29,12.99a0.25,0.25,0,0,1,0-.5h7.69a0.25,0.25,0,0,1,0,.5h-7.69Zm0,2.6a0.25,0.25,0,0,1,0-.5h7.69a0.25,0.25,0,0,1,0,.5h-7.69Zm19.24,0a1.541,1.541,0,0,1-1.53-1.55v-1.3a1.534,1.534,0,0,1,1.53-1.55h1.28a1.541,1.541,0,0,1,1.53,1.55v1.3a1.547,1.547,0,0,1-1.53,1.55h-1.28Zm0-3.9a1.048,1.048,0,0,0-1.04,1.05v1.3a1.048,1.048,0,0,0,1.04,1.05h1.28a1.039,1.039,0,0,0,1.03-1.05v-1.3a1.039,1.039,0,0,0-1.03-1.05h-1.28Z" transform="translate(-1270 -1080)"/>
</svg>
