<svg xmlns="http://www.w3.org/2000/svg" width="27" height="24" viewBox="0 0 27 24">
  <metadata><?xpacket begin="﻿" id="W5M0MpCehiHzreSzNTczkc9d"?>
<x:xmpmeta xmlns:x="adobe:ns:meta/" x:xmptk="Adobe XMP Core 5.6-c140 79.160451, 2017/05/06-01:08:21        ">
   <rdf:RDF xmlns:rdf="http://www.w3.org/1999/02/22-rdf-syntax-ns#">
      <rdf:Description rdf:about=""/>
   </rdf:RDF>
</x:xmpmeta>
                                                                                                    
                                                                                                    
                                                                                                    
                                                                                                    
                                                                                                    
                                                                                                    
                                                                                                    
                                                                                                    
                                                                                                    
                                                                                                    
                                                                                                    
                                                                                                    
                                                                                                    
                                                                                                    
                                                                                                    
                                                                                                    
                                                                                                    
                                                                                                    
                                                                                                    
                                                                                                    
                           
<?xpacket end="w"?></metadata>
<defs>
    <style>
      .cls-1 {
        fill: #034488;
        fill-rule: evenodd;
      }
    </style>
  </defs>
  <path id="cart" class="cls-1" d="M1453.89,20.49a0.614,0.614,0,0,0-.45-0.218h-21.38l-0.56-2.836a0.6,0.6,0,0,0-.56-0.436h-3.38a0.546,0.546,0,1,0,0,1.091h2.93l2.7,13.31a3.923,3.923,0,0,0,3.82,3.054h12.94a0.546,0.546,0,1,0,0-1.091h-12.83a2.613,2.613,0,0,1-2.25-1.2l16.43-2.182a0.481,0.481,0,0,0,.45-0.436l2.25-8.728A0.536,0.536,0,0,0,1453.89,20.49ZM1450.74,29l-16.43,2.073-2.02-9.818h20.36Zm-14.18,6.545a2.729,2.729,0,1,0,2.81,2.727A2.745,2.745,0,0,0,1436.56,35.545Zm0,4.364a1.637,1.637,0,1,1,1.69-1.637A1.707,1.707,0,0,1,1436.56,39.909Zm11.25-4.364a2.729,2.729,0,1,0,2.81,2.727A2.745,2.745,0,0,0,1447.81,35.545Zm0,4.364a1.637,1.637,0,1,1,1.69-1.637A1.707,1.707,0,0,1,1447.81,39.909Z" transform="translate(-1427 -17)"/>
</svg>
