<svg xmlns="http://www.w3.org/2000/svg" width="24" height="24" viewBox="0 0 24 24">
  <metadata><?xpacket begin="﻿" id="W5M0MpCehiHzreSzNTczkc9d"?>
<x:xmpmeta xmlns:x="adobe:ns:meta/" x:xmptk="Adobe XMP Core 5.6-c140 79.160451, 2017/05/06-01:08:21        ">
   <rdf:RDF xmlns:rdf="http://www.w3.org/1999/02/22-rdf-syntax-ns#">
      <rdf:Description rdf:about=""/>
   </rdf:RDF>
</x:xmpmeta>
                                                                                                    
                                                                                                    
                                                                                                    
                                                                                                    
                                                                                                    
                                                                                                    
                                                                                                    
                                                                                                    
                                                                                                    
                                                                                                    
                                                                                                    
                                                                                                    
                                                                                                    
                                                                                                    
                                                                                                    
                                                                                                    
                                                                                                    
                                                                                                    
                                                                                                    
                                                                                                    
                           
<?xpacket end="w"?></metadata>
<defs>
    <style>
      .cls-1 {
        fill: #034488;
        fill-rule: evenodd;
      }
    </style>
  </defs>
  <path id="cash" class="cls-1" d="M994.158,1044a2.151,2.151,0,0,1-2.158-2.14v-16.08a2.151,2.151,0,0,1,2.158-2.14h7.082l6.35-3.49a1.194,1.194,0,0,1,.58-0.15,1.215,1.215,0,0,1,1.06.62l1.7,3.02h1.73a2.153,2.153,0,0,1,2.16,2.14v5.59H1016v5.56h-1.18v4.93a2.153,2.153,0,0,1-2.16,2.14h-18.5Zm0-19.83a1.62,1.62,0,0,0-1.629,1.61v16.08a1.629,1.629,0,0,0,1.629,1.62h18.5a1.628,1.628,0,0,0,1.63-1.62v-4.93h-3.67a2.693,2.693,0,0,1-2.71-2.68v-0.2a2.7,2.7,0,0,1,2.71-2.68h3.67v-5.02H994.454a0.26,0.26,0,1,1,0-.52h2.817l3.019-1.66h-6.132Zm16.462,7.73a2.166,2.166,0,0,0-2.18,2.15v0.2a2.175,2.175,0,0,0,2.18,2.16h4.85v-4.51h-4.85Zm1.54-6.07h2.14l-0.03-.23a1.614,1.614,0,0,0-1.61-1.43h-1.43Zm-3.99-5.3a0.622,0.622,0,0,0-.33.08l-9.48,5.22h13.2l-2.79-4.96A0.689,0.689,0,0,0,1008.17,1020.53Zm2.85,14.49a0.83,0.83,0,1,1,0-1.66,0.854,0.854,0,0,1,.84.83A0.837,0.837,0,0,1,1011.02,1035.02Z" transform="translate(-992 -1020)"/>
</svg>
