<svg xmlns="http://www.w3.org/2000/svg" width="18" height="18" viewBox="0 0 18 18">
  <metadata><?xpacket begin="﻿" id="W5M0MpCehiHzreSzNTczkc9d"?>
<x:xmpmeta xmlns:x="adobe:ns:meta/" x:xmptk="Adobe XMP Core 5.6-c140 79.160451, 2017/05/06-01:08:21        ">
   <rdf:RDF xmlns:rdf="http://www.w3.org/1999/02/22-rdf-syntax-ns#">
      <rdf:Description rdf:about=""/>
   </rdf:RDF>
</x:xmpmeta>
                                                                                                    
                                                                                                    
                                                                                                    
                                                                                                    
                                                                                                    
                                                                                                    
                                                                                                    
                                                                                                    
                                                                                                    
                                                                                                    
                                                                                                    
                                                                                                    
                                                                                                    
                                                                                                    
                                                                                                    
                                                                                                    
                                                                                                    
                                                                                                    
                                                                                                    
                                                                                                    
                           
<?xpacket end="w"?></metadata>
<defs>
    <style>
      .cls-1 {
        fill: #034488;
        fill-rule: evenodd;
      }
    </style>
  </defs>
  <path id="comparison" class="cls-1" d="M936.742,1956a3.747,3.747,0,0,1-3.742-3.74,0.2,0.2,0,0,1,.034-0.12l3.2-5.34-2.936.82h-0.063a0.235,0.235,0,0,1-.227-0.17,0.24,0.24,0,0,1,.164-0.29l3.492-.97h0.007l0.019-.01,5.073-1.41v-6.53a0.236,0.236,0,1,1,.472,0v6.4l8.464-2.35c0.021,0,.043-0.01.064-0.01a0.234,0.234,0,0,1,.227.18,0.241,0.241,0,0,1-.164.29l-3.207.89,3.346,5.58a0.2,0.2,0,0,1,.034.12,3.749,3.749,0,0,1-3.742,3.74,3.747,3.747,0,0,1-3.742-3.74,0.2,0.2,0,0,1,.034-0.12l3.2-5.34-9.647,2.68,3.346,5.58a0.2,0.2,0,0,1,.033.12A3.746,3.746,0,0,1,936.742,1956Zm-3.213-3.14a3.268,3.268,0,0,0,6.426,0l0.068-.37H933.46Zm10.516-2.92a3.268,3.268,0,0,0,6.426,0l0.069-.37h-6.563Zm-10.392,2.08h6.177l-3.088-5.15Zm10.517-2.92h6.176l-3.088-5.15Z" transform="translate(-933 -1938)"/>
</svg>
