<svg xmlns="http://www.w3.org/2000/svg" width="18" height="18" viewBox="0 0 18 18">
  <metadata><?xpacket begin="﻿" id="W5M0MpCehiHzreSzNTczkc9d"?>
<x:xmpmeta xmlns:x="adobe:ns:meta/" x:xmptk="Adobe XMP Core 5.6-c140 79.160451, 2017/05/06-01:08:21        ">
   <rdf:RDF xmlns:rdf="http://www.w3.org/1999/02/22-rdf-syntax-ns#">
      <rdf:Description rdf:about=""/>
   </rdf:RDF>
</x:xmpmeta>
                                                                                                    
                                                                                                    
                                                                                                    
                                                                                                    
                                                                                                    
                                                                                                    
                                                                                                    
                                                                                                    
                                                                                                    
                                                                                                    
                                                                                                    
                                                                                                    
                                                                                                    
                                                                                                    
                                                                                                    
                                                                                                    
                                                                                                    
                                                                                                    
                                                                                                    
                                                                                                    
                           
<?xpacket end="w"?></metadata>
<defs>
    <style>
      .cls-1 {
        fill: #fff;
        fill-rule: evenodd;
      }
    </style>
  </defs>
  <path id="comparison" class="cls-1" d="M338.892,170.933l2.721-.756a0.527,0.527,0,1,0-.282-1.016l-3.383.94h0l-4.42,1.228v-5.8a0.527,0.527,0,0,0-1.054,0v6.1l-4.692,1.3h0l-3.394.943a0.528,0.528,0,0,0,.14,1.036,0.535,0.535,0,0,0,.142-0.02l2.116-.587-2.709,4.515a0.522,0.522,0,0,0-.076.272,3.917,3.917,0,0,0,7.833,0,0.53,0.53,0,0,0-.075-0.272l-3.033-5.054,8.226-2.286-2.709,4.516a0.53,0.53,0,0,0-.075.272,3.916,3.916,0,1,0,7.832,0,0.529,0.529,0,0,0-.075-0.271Zm-8.518,7.623h-4.915l2.458-4.1Zm5.252-2.824,2.457-4.1,2.458,4.1h-4.915Z" transform="translate(-324 -165)"/>
</svg>
