<svg xmlns="http://www.w3.org/2000/svg" width="20" height="20" viewBox="0 0 20 20">
  <metadata><?xpacket begin="﻿" id="W5M0MpCehiHzreSzNTczkc9d"?>
<x:xmpmeta xmlns:x="adobe:ns:meta/" x:xmptk="Adobe XMP Core 5.6-c140 79.160451, 2017/05/06-01:08:21        ">
   <rdf:RDF xmlns:rdf="http://www.w3.org/1999/02/22-rdf-syntax-ns#">
      <rdf:Description rdf:about=""/>
   </rdf:RDF>
</x:xmpmeta>
                                                                                                    
                                                                                                    
                                                                                                    
                                                                                                    
                                                                                                    
                                                                                                    
                                                                                                    
                                                                                                    
                                                                                                    
                                                                                                    
                                                                                                    
                                                                                                    
                                                                                                    
                                                                                                    
                                                                                                    
                                                                                                    
                                                                                                    
                                                                                                    
                                                                                                    
                                                                                                    
                           
<?xpacket end="w"?></metadata>
<defs>
    <style>
      .cls-1 {
        fill: #034488;
        fill-rule: evenodd;
      }
    </style>
  </defs>
  <path id="country" class="cls-1" d="M400,15a10,10,0,0,0-9.193,6.063l-0.125.042,0.049,0.145A10,10,0,1,0,400,15Zm7.842,15.041-0.513-.513v-1.2a0.335,0.335,0,0,0-.034-0.149l-1.3-2.6V24.333a0.333,0.333,0,0,0-.149-0.277l-1-.667a0.332,0.332,0,0,0-.266-0.046l-1.225.306-2.056-.883-0.283-1.983L401.805,20h1.683l0.567,0.852a0.334,0.334,0,0,0,.223.144l2,0.334a0.337,0.337,0,0,0,.16-0.013l1.842-.614A9.3,9.3,0,0,1,407.846,30.041Zm-1.374-11.757-0.542.362-1.511-.3-0.98-.327a0.331,0.331,0,0,0-.186-0.007l-1.239.309-0.544-.18,0.4-.806H403a0.331,0.331,0,0,0,.149-0.035l1.153-.576A9.361,9.361,0,0,1,406.472,18.284ZM396.35,16.411l0.8,0.533a0.332,0.332,0,0,0,.131.052l1.614,0.269-0.157.472-0.842.281a0.334,0.334,0,0,0-.18.145l-0.957,1.6-1.538.922L392.955,21a0.333,0.333,0,0,0-.286.33v1a0.335,0.335,0,0,0,.1.236l0.569,0.569V23.71l-1.386-.925-0.5-1.509A9.386,9.386,0,0,1,396.35,16.411ZM395.4,27.339l-1.506-.3-0.56-1.117V25.138l1.242-1.242,0.46,0.919a0.331,0.331,0,0,0,.3.184h2.144l0.9,1.505a0.334,0.334,0,0,0,.286.162h0.926l-0.233,1.169L398.1,29.1a0.332,0.332,0,0,0-.1.236v0.833l-1.2.9a0.334,0.334,0,0,0-.133.267v1.2l-0.415-.137-0.585-1.464V27.666A0.333,0.333,0,0,0,395.4,27.339Zm-1,5.124a9.329,9.329,0,0,1-3.324-10.189l0.277,0.831a0.33,0.33,0,0,0,.131.172l1.661,1.108-0.379.379a0.335,0.335,0,0,0-.1.236v1a0.336,0.336,0,0,0,.035.149l0.666,1.333a0.332,0.332,0,0,0,.233.177l1.4,0.28V31a0.33,0.33,0,0,0,.024.124l0.666,1.666a0.337,0.337,0,0,0,.205.192l1,0.333A0.332,0.332,0,0,0,397.334,33V31.5l1.2-.9a0.333,0.333,0,0,0,.134-0.266V29.47l1.235-1.236a0.337,0.337,0,0,0,.091-0.17l0.333-1.666A0.333,0.333,0,0,0,400,26h-1.145l-0.9-1.5a0.333,0.333,0,0,0-.285-0.162h-2.127l-0.573-1.148a0.331,0.331,0,0,0-.245-0.18,0.326,0.326,0,0,0-.289.093L394,23.528V23a0.332,0.332,0,0,0-.1-0.236l-0.569-.569V21.622l2.047-.292a0.329,0.329,0,0,0,.124-0.044l1.667-1a0.328,0.328,0,0,0,.114-0.114l0.936-1.561,0.883-.295a0.33,0.33,0,0,0,.211-0.211l0.333-1a0.333,0.333,0,0,0-.212-0.421,0.319,0.319,0,0,0-.049-0.012l-1.929-.322-0.339-.226a9.3,9.3,0,0,1,6.409.239l-0.608.3h-1.255a0.334,0.334,0,0,0-.3.185L400.7,18.184a0.333,0.333,0,0,0,.149.447,0.277,0.277,0,0,0,.044.017l1,0.334a0.327,0.327,0,0,0,.186.007l1.239-.309,0.908,0.3a0.22,0.22,0,0,0,.04.011l1.667,0.334a0.331,0.331,0,0,0,.25-0.05l0.758-.506a9.361,9.361,0,0,1,1,1.339l-1.64.547-1.775-.3-0.587-.88a0.331,0.331,0,0,0-.275-0.148h-2a0.335,0.335,0,0,0-.236.1l-1,1a0.33,0.33,0,0,0-.1.283l0.334,2.333a0.331,0.331,0,0,0,.2.259l2.332,1a0.328,0.328,0,0,0,.212.017l1.191-.3,0.727,0.486v1.155a0.331,0.331,0,0,0,.033.148l1.3,2.6v1.255a0.332,0.332,0,0,0,.1.236l0.7,0.7A9.328,9.328,0,0,1,394.4,32.463Z" transform="translate(-390 -15)"/>
</svg>
