<svg xmlns="http://www.w3.org/2000/svg" width="39" height="24" viewBox="0 0 39 24">
  <metadata><?xpacket begin="﻿" id="W5M0MpCehiHzreSzNTczkc9d"?>
<x:xmpmeta xmlns:x="adobe:ns:meta/" x:xmptk="Adobe XMP Core 5.6-c140 79.160451, 2017/05/06-01:08:21        ">
   <rdf:RDF xmlns:rdf="http://www.w3.org/1999/02/22-rdf-syntax-ns#">
      <rdf:Description rdf:about=""/>
   </rdf:RDF>
</x:xmpmeta>
                                                                                                    
                                                                                                    
                                                                                                    
                                                                                                    
                                                                                                    
                                                                                                    
                                                                                                    
                                                                                                    
                                                                                                    
                                                                                                    
                                                                                                    
                                                                                                    
                                                                                                    
                                                                                                    
                                                                                                    
                                                                                                    
                                                                                                    
                                                                                                    
                                                                                                    
                                                                                                    
                           
<?xpacket end="w"?></metadata>
<defs>
    <style>
      .cls-1 {
        fill: #034488;
        fill-rule: evenodd;
      }
    </style>
  </defs>
  <path id="delivery" class="cls-1" d="M1024.75,718a3.58,3.58,0,0,1-3.61-3.541v-0.037l0.01-.327h-14.66v0.364a3.6,3.6,0,0,1-7.2,0v-0.037l0-.327H995.6a0.946,0.946,0,0,1-.954-0.937v-1.666h-2.358a0.287,0.287,0,1,1,0-.573h5.962a0.287,0.287,0,1,1,0,.573h-3.021v1.666a0.368,0.368,0,0,0,.371.364h3.8l0.077-.218a3.62,3.62,0,0,1,6.806,0l0.08,0.218h13.45V708.6a0.29,0.29,0,0,1,.58,0v4.919h0.86l0.08-.217a3.623,3.623,0,0,1,6.81,0l0.08,0.217h2.19v-3.331h-1.04a1.6,1.6,0,0,1-1.61-1.588v-1.3a0.288,0.288,0,0,1,.29-0.286h2.38l-0.14-.423a2.341,2.341,0,0,0-2.22-1.607h-7.68V706a0.29,0.29,0,0,1-.58,0V694.937a0.37,0.37,0,0,0-.37-0.364H995.6a0.368,0.368,0,0,0-.371.364V706a0.292,0.292,0,0,1-.583,0V694.937A0.946,0.946,0,0,1,995.6,694h23.847a0.947,0.947,0,0,1,.95.937V696.6h5.01a2.26,2.26,0,0,1,2.28,2.238v0.651a0.292,0.292,0,0,1-.23.28l-0.34.07,1.17,4.57,0.21,0.033a2.921,2.921,0,0,1,2.5,2.856v6.508a0.288,0.288,0,0,1-.29.286h-2.36v0.364A3.578,3.578,0,0,1,1024.75,718Zm0-6.508a2.968,2.968,0,1,0,3.02,2.968A3,3,0,0,0,1024.75,711.492Zm-21.86,0a2.968,2.968,0,1,0,3.02,2.968A3,3,0,0,0,1002.89,711.492Zm25.46-2.889a1.022,1.022,0,0,0,1.03,1.015h1.04v-2.03h-2.07V708.6Zm-7.95-4.191h7.29l-1.18-4.633h-6.11v4.633Zm0-5.206h6.7v-0.365a1.681,1.681,0,0,0-1.69-1.665h-5.01v2.03ZM1002.89,715.4a0.938,0.938,0,1,1,.95-0.937A0.941,0.941,0,0,1,1002.89,715.4Zm21.86,0a0.938,0.938,0,1,1,.95-0.937A0.95,0.95,0,0,1,1024.75,715.4Zm-16.56-3.9a0.287,0.287,0,1,1,0-.574h9.27a0.287,0.287,0,1,1,0,.574h-9.27Zm-14.574-2.6a0.287,0.287,0,1,1,0-.573h7.944a0.287,0.287,0,1,1,0,.573h-7.944Z" transform="translate(-992 -694)"/>
</svg>
