<svg xmlns="http://www.w3.org/2000/svg" width="23" height="19" viewBox="0 0 23 19">
  <metadata><?xpacket begin="﻿" id="W5M0MpCehiHzreSzNTczkc9d"?>
<x:xmpmeta xmlns:x="adobe:ns:meta/" x:xmptk="Adobe XMP Core 5.6-c140 79.160451, 2017/05/06-01:08:21        ">
   <rdf:RDF xmlns:rdf="http://www.w3.org/1999/02/22-rdf-syntax-ns#">
      <rdf:Description rdf:about=""/>
   </rdf:RDF>
</x:xmpmeta>
                                                                                                    
                                                                                                    
                                                                                                    
                                                                                                    
                                                                                                    
                                                                                                    
                                                                                                    
                                                                                                    
                                                                                                    
                                                                                                    
                                                                                                    
                                                                                                    
                                                                                                    
                                                                                                    
                                                                                                    
                                                                                                    
                                                                                                    
                                                                                                    
                                                                                                    
                                                                                                    
                           
<?xpacket end="w"?></metadata>
<defs>
    <style>
      .cls-1 {
        fill: #fff;
        fill-rule: evenodd;
      }
    </style>
  </defs>
  <path id="filter" class="cls-1" d="M44.934,331a0.219,0.219,0,0,1-.087-0.018,0.228,0.228,0,0,1-.14-0.212v-6.8l-7.712-7.8H36.2a1.211,1.211,0,0,1-1.2-1.216v-1.74A1.21,1.21,0,0,1,36.2,312H56.8a1.21,1.21,0,0,1,1.2,1.216v1.74a1.211,1.211,0,0,1-1.2,1.216H56.023l-7.712,7.8v3.616a0.229,0.229,0,0,1-.067.162l-3.149,3.185A0.226,0.226,0,0,1,44.934,331Zm0.161-7.288a0.231,0.231,0,0,1,.066.163v6.341l2.7-2.725v-3.612a0.231,0.231,0,0,1,.066-0.167l7.457-7.54H37.638ZM36.2,312.459a0.753,0.753,0,0,0-.748.757v1.74a0.753,0.753,0,0,0,.748.756H56.8a0.753,0.753,0,0,0,.748-0.756v-1.74a0.753,0.753,0,0,0-.748-0.757H36.2Z" transform="translate(-35 -312)"/>
</svg>
