<svg xmlns="http://www.w3.org/2000/svg" width="17.5" height="17.5" viewBox="0 0 17.5 17.5">
  <metadata><?xpacket begin="﻿" id="W5M0MpCehiHzreSzNTczkc9d"?>
<x:xmpmeta xmlns:x="adobe:ns:meta/" x:xmptk="Adobe XMP Core 5.6-c140 79.160451, 2017/05/06-01:08:21        ">
   <rdf:RDF xmlns:rdf="http://www.w3.org/1999/02/22-rdf-syntax-ns#">
      <rdf:Description rdf:about=""/>
   </rdf:RDF>
</x:xmpmeta>
                                                                                                    
                                                                                                    
                                                                                                    
                                                                                                    
                                                                                                    
                                                                                                    
                                                                                                    
                                                                                                    
                                                                                                    
                                                                                                    
                                                                                                    
                                                                                                    
                                                                                                    
                                                                                                    
                                                                                                    
                                                                                                    
                                                                                                    
                                                                                                    
                                                                                                    
                                                                                                    
                           
<?xpacket end="w"?></metadata>
<defs>
    <style>
      .cls-1 {
        fill: #ecf4ff;
        fill-rule: evenodd;
      }
    </style>
  </defs>
  <path id="insta" class="cls-1" d="M456.431,3860.75h-7.843a4.838,4.838,0,0,0-4.83,4.83v7.84a4.838,4.838,0,0,0,4.83,4.83h7.843a4.838,4.838,0,0,0,4.831-4.83v-7.84A4.838,4.838,0,0,0,456.431,3860.75Zm3.278,12.67a3.282,3.282,0,0,1-3.278,3.28h-7.843a3.281,3.281,0,0,1-3.277-3.28v-7.84a3.281,3.281,0,0,1,3.277-3.28h7.843a3.282,3.282,0,0,1,3.278,3.28v7.84h0Zm-7.2-8.43a4.51,4.51,0,1,0,4.51,4.51A4.513,4.513,0,0,0,452.51,3864.99Zm0,7.47a2.96,2.96,0,1,1,2.957-2.96A2.963,2.963,0,0,1,452.51,3872.46Zm4.7-8.79a1.117,1.117,0,0,0-.8.34,1.132,1.132,0,0,0-.335.8,1.173,1.173,0,0,0,.335.81,1.147,1.147,0,0,0,1.61,0,1.171,1.171,0,0,0,.333-0.81A1.149,1.149,0,0,0,457.209,3863.67Z" transform="translate(-443.75 -3860.75)"/>
</svg>
