<?xml version="1.0" encoding="utf-8"?>
<!-- Generator: Adobe Illustrator 22.0.1, SVG Export Plug-In . SVG Version: 6.00 Build 0)  -->
<svg version="1.1" id="Слой_1" xmlns="http://www.w3.org/2000/svg" xmlns:xlink="http://www.w3.org/1999/xlink" x="0px" y="0px"
	 viewBox="0 0 28.5 26" style="enable-background:new 0 0 28.5 26;" xml:space="preserve">
<style type="text/css">
	.st0{opacity:0.3;fill:#333333;enable-background:new    ;}
</style>
<g>
	<path class="st0" d="M4,0C1.8,0,0,1.8,0,4s1.8,4,4,4s4-1.8,4-4S6.2,0,4,0z M4,7C2.3,7,1,5.7,1,4s1.3-3,3-3s3,1.3,3,3S5.7,7,4,7z"/>
	<path class="st0" d="M4,9c-2.2,0-4,1.8-4,4c0,2.2,1.8,4,4,4s4-1.8,4-4C8,10.8,6.2,9,4,9z M4,16c-1.7,0-3-1.3-3-3s1.3-3,3-3
		s3,1.3,3,3S5.7,16,4,16z"/>
	<path class="st0" d="M4,18c-2.2,0-4,1.8-4,4s1.8,4,4,4s4-1.8,4-4S6.2,18,4,18z M4,25c-1.7,0-3-1.3-3-3s1.3-3,3-3s3,1.3,3,3
		S5.7,25,4,25z"/>
	<rect x="8.5" y="3.5" class="st0" width="20" height="1"/>
	<rect x="8.5" y="12.5" class="st0" width="20" height="1"/>
	<rect x="8.5" y="21.5" class="st0" width="20" height="1"/>
</g>
</svg>
