<svg xmlns="http://www.w3.org/2000/svg" width="22" height="17" viewBox="0 0 22 17">
  <metadata><?xpacket begin="﻿" id="W5M0MpCehiHzreSzNTczkc9d"?>
<x:xmpmeta xmlns:x="adobe:ns:meta/" x:xmptk="Adobe XMP Core 5.6-c140 79.160451, 2017/05/06-01:08:21        ">
   <rdf:RDF xmlns:rdf="http://www.w3.org/1999/02/22-rdf-syntax-ns#">
      <rdf:Description rdf:about=""/>
   </rdf:RDF>
</x:xmpmeta>
                                                                                                    
                                                                                                    
                                                                                                    
                                                                                                    
                                                                                                    
                                                                                                    
                                                                                                    
                                                                                                    
                                                                                                    
                                                                                                    
                                                                                                    
                                                                                                    
                                                                                                    
                                                                                                    
                                                                                                    
                                                                                                    
                                                                                                    
                                                                                                    
                                                                                                    
                                                                                                    
                           
<?xpacket end="w"?></metadata>
<defs>
    <style>
      .cls-1 {
        fill: #034488;
        fill-rule: evenodd;
      }
    </style>
  </defs>
  <path id="login" class="cls-1" d="M1308.33,29.333a0.539,0.539,0,0,1-.36-0.142,0.482,0.482,0,0,1,0-.684l2.64-2.524H1295.5a0.484,0.484,0,1,1,0-.967h15.11l-2.64-2.524a0.481,0.481,0,0,1,0-.684,0.537,0.537,0,0,1,.36-0.142,0.519,0.519,0,0,1,.36.142l3.5,3.349c0.01,0.008.01,0.017,0.02,0.027a0.09,0.09,0,0,1,.03.04,0.015,0.015,0,0,1,.01.016,0.041,0.041,0,0,1,.02.025l0.01,0.013c0,0.009.01,0.019,0.01,0.029s0.01,0.008.01,0.011,0.01,0.021.01,0.031V25.36a0.046,0.046,0,0,1,.01.034,0.02,0.02,0,0,0,.01.02v0.037c0,0.017.01,0.033,0.01,0.049s-0.01.031-.01,0.048v0.035a0.028,0.028,0,0,0-.01.024,0.037,0.037,0,0,1-.01.029v0.017c0,0.009-.01.018-0.01,0.027l-0.01.015a0.134,0.134,0,0,1-.01.031l-0.01.01a0.042,0.042,0,0,1-.02.024,0.014,0.014,0,0,1-.01.016c0,0.007-.01.014-0.01,0.021s-0.01.012-.02,0.018-0.01.018-.02,0.027l-3.5,3.349A0.52,0.52,0,0,1,1308.33,29.333ZM1308.12,34a9,9,0,0,1-7.36-3.747,0.47,0.47,0,0,1,.14-0.672,0.508,0.508,0,0,1,.28-0.083,0.519,0.519,0,0,1,.42.213,7.96,7.96,0,0,0,6.52,3.322,7.716,7.716,0,0,0,7.87-7.533,7.715,7.715,0,0,0-7.87-7.533,7.952,7.952,0,0,0-6.53,3.337,0.519,0.519,0,0,1-.42.214,0.508,0.508,0,0,1-.28-0.082,0.475,0.475,0,0,1-.22-0.308,0.47,0.47,0,0,1,.08-0.363A8.975,8.975,0,0,1,1308.12,17a8.7,8.7,0,0,1,8.88,8.5A8.7,8.7,0,0,1,1308.12,34Z" transform="translate(-1295 -17)"/>
</svg>
