<svg xmlns="http://www.w3.org/2000/svg" width="20" height="14" viewBox="0 0 20 14">
  <metadata><?xpacket begin="﻿" id="W5M0MpCehiHzreSzNTczkc9d"?>
<x:xmpmeta xmlns:x="adobe:ns:meta/" x:xmptk="Adobe XMP Core 5.6-c140 79.160451, 2017/05/06-01:08:21        ">
   <rdf:RDF xmlns:rdf="http://www.w3.org/1999/02/22-rdf-syntax-ns#">
      <rdf:Description rdf:about=""/>
   </rdf:RDF>
</x:xmpmeta>
                                                                                                    
                                                                                                    
                                                                                                    
                                                                                                    
                                                                                                    
                                                                                                    
                                                                                                    
                                                                                                    
                                                                                                    
                                                                                                    
                                                                                                    
                                                                                                    
                                                                                                    
                                                                                                    
                                                                                                    
                                                                                                    
                                                                                                    
                                                                                                    
                                                                                                    
                                                                                                    
                           
<?xpacket end="w"?></metadata>
<defs>
    <style>
      .cls-1 {
        fill: #034488;
        fill-rule: evenodd;
      }
    </style>
  </defs>
  <path id="mail" class="cls-1" d="M554.193,28.813a0.327,0.327,0,0,1-.221-0.086l-3.71-3.429a0.314,0.314,0,0,1-.015-0.448,0.325,0.325,0,0,1,.456-0.014l3.711,3.429a0.313,0.313,0,0,1,.014.448A0.324,0.324,0,0,1,554.193,28.813Zm-12.387,0a0.328,0.328,0,0,1-.236-0.1,0.314,0.314,0,0,1,.015-0.448l3.712-3.429a0.327,0.327,0,0,1,.456.014,0.314,0.314,0,0,1-.014.448l-3.713,3.429A0.325,0.325,0,0,1,541.806,28.813ZM556.388,32H539.612A1.6,1.6,0,0,1,538,30.413V19.586A1.6,1.6,0,0,1,539.612,18h16.776A1.6,1.6,0,0,1,558,19.586V30.413A1.6,1.6,0,0,1,556.388,32ZM539.612,18.634a0.962,0.962,0,0,0-.968.953V30.413a0.962,0.962,0,0,0,.968.953h16.776a0.961,0.961,0,0,0,.967-0.953V19.586a0.961,0.961,0,0,0-.967-0.953H539.612ZM548,26.6a1.82,1.82,0,0,1-1.184-.421l-8.281-7.114a0.315,0.315,0,0,1-.032-0.448,0.328,0.328,0,0,1,.456-0.031l8.28,7.113a1.224,1.224,0,0,0,1.521,0l8.27-7.1a0.325,0.325,0,0,1,.455.03,0.314,0.314,0,0,1-.031.448l-8.27,7.1A1.819,1.819,0,0,1,548,26.6Z" transform="translate(-538 -18)"/>
</svg>
