<svg xmlns="http://www.w3.org/2000/svg" width="17" height="24" viewBox="0 0 17 24">
  <metadata><?xpacket begin="﻿" id="W5M0MpCehiHzreSzNTczkc9d"?>
<x:xmpmeta xmlns:x="adobe:ns:meta/" x:xmptk="Adobe XMP Core 5.6-c140 79.160451, 2017/05/06-01:08:21        ">
   <rdf:RDF xmlns:rdf="http://www.w3.org/1999/02/22-rdf-syntax-ns#">
      <rdf:Description rdf:about=""/>
   </rdf:RDF>
</x:xmpmeta>
                                                                                                    
                                                                                                    
                                                                                                    
                                                                                                    
                                                                                                    
                                                                                                    
                                                                                                    
                                                                                                    
                                                                                                    
                                                                                                    
                                                                                                    
                                                                                                    
                                                                                                    
                                                                                                    
                                                                                                    
                                                                                                    
                                                                                                    
                                                                                                    
                                                                                                    
                                                                                                    
                           
<?xpacket end="w"?></metadata>
<defs>
    <style>
      .cls-1 {
        fill: #034488;
        fill-rule: evenodd;
      }
    </style>
  </defs>
  <path id="map" class="cls-1" d="M1000.58,500.257a3.068,3.068,0,1,0,3.11,3.068A3.088,3.088,0,0,0,1000.58,500.257Zm0,5.259a2.191,2.191,0,1,1,2.22-2.191A2.206,2.206,0,0,1,1000.58,505.516Zm5.94-8.056a8.571,8.571,0,0,0-12.024,0,9.489,9.489,0,0,0-.8,11.811L1000.51,519l6.8-9.71A9.495,9.495,0,0,0,1006.52,497.46Zm0.07,11.312-6.08,8.683-6.094-8.7a8.571,8.571,0,0,1,.707-10.679,7.674,7.674,0,0,1,10.767,0A8.584,8.584,0,0,1,1006.59,508.772Z" transform="translate(-992 -495)"/>
</svg>
