<svg xmlns="http://www.w3.org/2000/svg" width="30" height="30" viewBox="0 0 30 30">
  <metadata><?xpacket begin="﻿" id="W5M0MpCehiHzreSzNTczkc9d"?>
<x:xmpmeta xmlns:x="adobe:ns:meta/" x:xmptk="Adobe XMP Core 5.6-c140 79.160451, 2017/05/06-01:08:21        ">
   <rdf:RDF xmlns:rdf="http://www.w3.org/1999/02/22-rdf-syntax-ns#">
      <rdf:Description rdf:about=""/>
   </rdf:RDF>
</x:xmpmeta>
                                                                                                    
                                                                                                    
                                                                                                    
                                                                                                    
                                                                                                    
                                                                                                    
                                                                                                    
                                                                                                    
                                                                                                    
                                                                                                    
                                                                                                    
                                                                                                    
                                                                                                    
                                                                                                    
                                                                                                    
                                                                                                    
                                                                                                    
                                                                                                    
                                                                                                    
                                                                                                    
                           
<?xpacket end="w"?></metadata>
<defs>
    <style>
      .cls-1 {
        fill: #fff;
        fill-rule: evenodd;
      }
    </style>
  </defs>
  <path id="money" class="cls-1" d="M1016.33,1107.6a0.312,0.312,0,0,1-.18-0.07,0.273,0.273,0,0,1-.08-0.19,0.274,0.274,0,0,1,.26-0.26,0.273,0.273,0,0,1,.19.08,0.312,0.312,0,0,1,.07.18A0.242,0.242,0,0,1,1016.33,1107.6Zm23.04-16.29a0.25,0.25,0,0,1-.18-0.08,0.269,0.269,0,0,1-.08-0.18,0.273,0.273,0,0,1,.08-0.19,0.241,0.241,0,0,1,.18-0.07,0.227,0.227,0,0,1,.18.07,0.273,0.273,0,0,1,.08.19,0.312,0.312,0,0,1-.07.18A0.273,0.273,0,0,1,1039.37,1091.31ZM1023.65,1110a2.653,2.653,0,0,1-1.76-.66l-1.13-.99-0.13.54a1.474,1.474,0,0,1-1.42,1.11h-5.75a1.455,1.455,0,0,1-1.46-1.46v-9.77a1.453,1.453,0,0,1,1.46-1.45h5.75a1.465,1.465,0,0,1,1.2.63l0.23,0.34,2.98-2.97-2.99-11.18a0.249,0.249,0,0,1,.18-0.32l5.93-1.59v-1.97a0.265,0.265,0,0,1,.26-0.26h14.74a0.274,0.274,0,0,1,.26.26v29.48a0.265,0.265,0,0,1-.26.26h-18.09Zm-10.19-12.16a0.939,0.939,0,0,0-.94.94v9.76a0.939,0.939,0,0,0,.94.94h5.75a0.939,0.939,0,0,0,.94-0.94v-9.76a0.939,0.939,0,0,0-.94-0.94h-2.62v7.24a0.258,0.258,0,0,1-.26.26,0.265,0.265,0,0,1-.26-0.26v-7.24h-2.61Zm23.1,9.76a1.708,1.708,0,0,1,0,1.4l-0.22.48h5.14v-28.96h-14.22v17.46h1.85v-12.27a0.265,0.265,0,0,1,.26-0.26,1.953,1.953,0,0,0,1.95-1.95,0.258,0.258,0,0,1,.26-0.26h5.58a0.258,0.258,0,0,1,.26.26,1.953,1.953,0,0,0,1.95,1.95,0.265,0.265,0,0,1,.26.26v2.4a0.26,0.26,0,0,1-.52,0v-2.14l-0.27-.06a2.46,2.46,0,0,1-1.88-1.89l-0.06-.26h-5.06l-0.06.26a2.46,2.46,0,0,1-1.88,1.89l-0.27.06v12.01h3.61l0.14-.66a2.53,2.53,0,1,1,1.98,0l0.14,0.66h0.96a1.7,1.7,0,0,1,1.7,1.69,1.661,1.661,0,0,1-.15.7l-0.22.48h0.55a2.2,2.2,0,0,1,.36.04l0.41,0.09v-7.24a0.26,0.26,0,1,1,.52,0v7.71l0.07,0.09a1.652,1.652,0,0,1,.33,1.01,1.71,1.71,0,0,1-1.25,1.64l-0.4.11,0.19,0.37a1.637,1.637,0,0,1,.18.76,1.7,1.7,0,0,1-1.7,1.69h-0.71Zm-15.89-8.6v8.59l1.56,1.36a2.192,2.192,0,0,0,1.42.53h11.36a1.18,1.18,0,0,0,0-2.36h-4.59a0.258,0.258,0,0,1-.26-0.26,0.265,0.265,0,0,1,.26-0.26h6.63a1.175,1.175,0,1,0,0-2.35h-6.63a0.26,0.26,0,1,1,0-.52h7.92a1.18,1.18,0,0,0,0-2.36h-7.92a0.26,0.26,0,1,1,0-.52h6.04a1.175,1.175,0,1,0,0-2.35l-11.78-.01a0.258,0.258,0,0,1-.25-0.19l-0.62-2.43Zm0.52-14.74,2.92,10.89,0.04,0.05a0.313,0.313,0,0,1,.05.1l0.68,2.68h1.91l-2.45-9.08a0.275,0.275,0,0,1,.02-0.2,0.311,0.311,0,0,1,.16-0.12,1.952,1.952,0,0,0,1.38-2.39,0.277,0.277,0,0,1,.03-0.2,0.248,0.248,0,0,1,.16-0.12l0.65-.17v-2.93Zm13.18,8.73a2.01,2.01,0,1,0,2.01,2.01A2.01,2.01,0,0,0,1034.37,1092.99Zm-8.26-4.99a2.418,2.418,0,0,1-.96.89l-0.24.13,1.16,4.31,0.67-.09V1087Z" transform="translate(-1012 -1080)"/>
</svg>
