<svg xmlns="http://www.w3.org/2000/svg" width="25" height="7" viewBox="0 0 25 7">
  <metadata><?xpacket begin="﻿" id="W5M0MpCehiHzreSzNTczkc9d"?>
<x:xmpmeta xmlns:x="adobe:ns:meta/" x:xmptk="Adobe XMP Core 5.6-c140 79.160451, 2017/05/06-01:08:21        ">
   <rdf:RDF xmlns:rdf="http://www.w3.org/1999/02/22-rdf-syntax-ns#">
      <rdf:Description rdf:about=""/>
   </rdf:RDF>
</x:xmpmeta>
                                                                                                    
                                                                                                    
                                                                                                    
                                                                                                    
                                                                                                    
                                                                                                    
                                                                                                    
                                                                                                    
                                                                                                    
                                                                                                    
                                                                                                    
                                                                                                    
                                                                                                    
                                                                                                    
                                                                                                    
                                                                                                    
                                                                                                    
                                                                                                    
                                                                                                    
                                                                                                    
                           
<?xpacket end="w"?></metadata>
<defs>
    <style>
      .cls-1 {
        fill: #4fad00;
        fill-rule: evenodd;
      }
    </style>
  </defs>
  <path id="new" class="cls-1" d="M692.011,1813.83a0.263,0.263,0,0,1-.262-0.26v-3.88a1.534,1.534,0,0,0-.5-1.21,2.223,2.223,0,0,0-2.655,0,1.534,1.534,0,0,0-.5,1.21v3.88a0.264,0.264,0,0,1-.262.26h-0.574a0.263,0.263,0,0,1-.262-0.26v-3.88a2.5,2.5,0,0,1,.854-1.9,3.106,3.106,0,0,1,4.139,0,2.5,2.5,0,0,1,.854,1.9v3.88a0.264,0.264,0,0,1-.262.26h-0.574Zm5.567,0.1a3.465,3.465,0,0,1,0-6.93,3.171,3.171,0,0,1,2.178.72,3.977,3.977,0,0,1,.825.92,0.263,0.263,0,0,1,.025.2,0.291,0.291,0,0,1-.129.17l-4.962,2.66,0.2,0.25c0.061,0.07.127,0.15,0.2,0.22a2.372,2.372,0,0,0,3.883-.85,0.264,0.264,0,0,1,.246-0.17h0.037l0.59,0.09a0.259,0.259,0,0,1,.213.33,3.268,3.268,0,0,1-.855,1.38A3.313,3.313,0,0,1,697.578,1813.93Zm0-5.82a2.356,2.356,0,0,0-2.354,2.22l-0.024.47,3.983-2.13-0.4-.24A2.245,2.245,0,0,0,697.578,1808.11Zm11.7,5.89a2.648,2.648,0,0,1-1.971-.87l-0.191-.19-0.191.19a2.644,2.644,0,0,1-1.97.87,2.605,2.605,0,0,1-1.924-.81,2.67,2.67,0,0,1-.8-1.94v-3.95a0.263,0.263,0,0,1,.262-0.26h0.593a0.263,0.263,0,0,1,.261.26v3.95a1.552,1.552,0,0,0,.432,1.16,1.613,1.613,0,0,0,1.172.42,1.6,1.6,0,0,0,1.167-.42,1.527,1.527,0,0,0,.429-1.16v-3.95a0.263,0.263,0,0,1,.262-0.26h0.607a0.264,0.264,0,0,1,.262.26v3.95a1.542,1.542,0,0,0,.429,1.16,1.588,1.588,0,0,0,1.167.42,1.606,1.606,0,0,0,1.171-.42,1.548,1.548,0,0,0,.433-1.16v-3.95a0.263,0.263,0,0,1,.261-0.26h0.593a0.264,0.264,0,0,1,.262.26v3.95a2.667,2.667,0,0,1-.8,1.94A2.6,2.6,0,0,1,709.28,1814Z" transform="translate(-687 -1807)"/>
</svg>
