<svg xmlns="http://www.w3.org/2000/svg" width="11.375" height="18.37" viewBox="0 0 11.375 18.37">
  <metadata><?xpacket begin="﻿" id="W5M0MpCehiHzreSzNTczkc9d"?>
<x:xmpmeta xmlns:x="adobe:ns:meta/" x:xmptk="Adobe XMP Core 5.6-c140 79.160451, 2017/05/06-01:08:21        ">
   <rdf:RDF xmlns:rdf="http://www.w3.org/1999/02/22-rdf-syntax-ns#">
      <rdf:Description rdf:about=""/>
   </rdf:RDF>
</x:xmpmeta>
                                                                                                    
                                                                                                    
                                                                                                    
                                                                                                    
                                                                                                    
                                                                                                    
                                                                                                    
                                                                                                    
                                                                                                    
                                                                                                    
                                                                                                    
                                                                                                    
                                                                                                    
                                                                                                    
                                                                                                    
                                                                                                    
                                                                                                    
                                                                                                    
                                                                                                    
                                                                                                    
                           
<?xpacket end="w"?></metadata>
<defs>
    <style>
      .cls-1 {
        fill: #fff;
        fill-rule: evenodd;
      }
    </style>
  </defs>
  <path id="ok" class="cls-1" d="M407.01,3873.69a7.51,7.51,0,0,1-3.924-1.36,3.94,3.94,0,0,1-.414-0.33,1.051,1.051,0,0,1-.154-1.53,1.138,1.138,0,0,1,1.485-.33,2.075,2.075,0,0,1,.325.19,6.581,6.581,0,0,0,7.132.06,2.161,2.161,0,0,1,.694-0.35,1.116,1.116,0,0,1,1.249.49,1,1,0,0,1-.076,1.35,5.906,5.906,0,0,1-2.074,1.3,9.774,9.774,0,0,1-2.354.51c0.121,0.13.178,0.19,0.254,0.26,1.09,1.07,2.185,2.13,3.271,3.19a1.036,1.036,0,0,1,.244,1.24,1.3,1.3,0,0,1-1.211.73,1.19,1.19,0,0,1-.767-0.38c-0.822-.8-1.66-1.59-2.466-2.41-0.235-.24-0.348-0.19-0.555.01q-1.24,1.245-2.515,2.46a1.093,1.093,0,0,1-1.272.22,1.252,1.252,0,0,1-.743-1.15,1.155,1.155,0,0,1,.4-0.78q1.618-1.56,3.231-3.14C406.84,3873.87,406.906,3873.8,407.01,3873.69Zm0.894-3.64a4.652,4.652,0,1,1,4.82-4.59A4.727,4.727,0,0,1,407.9,3870.05Zm2.379-4.65a2.345,2.345,0,1,0-2.329,2.28A2.294,2.294,0,0,0,410.283,3865.4Z" transform="translate(-402.25 -3860.75)"/>
</svg>
