<svg xmlns="http://www.w3.org/2000/svg" width="26" height="24" viewBox="0 0 26 24">
  <metadata><?xpacket begin="﻿" id="W5M0MpCehiHzreSzNTczkc9d"?>
<x:xmpmeta xmlns:x="adobe:ns:meta/" x:xmptk="Adobe XMP Core 5.6-c140 79.160451, 2017/05/06-01:08:21        ">
   <rdf:RDF xmlns:rdf="http://www.w3.org/1999/02/22-rdf-syntax-ns#">
      <rdf:Description rdf:about=""/>
   </rdf:RDF>
</x:xmpmeta>
                                                                                                    
                                                                                                    
                                                                                                    
                                                                                                    
                                                                                                    
                                                                                                    
                                                                                                    
                                                                                                    
                                                                                                    
                                                                                                    
                                                                                                    
                                                                                                    
                                                                                                    
                                                                                                    
                                                                                                    
                                                                                                    
                                                                                                    
                                                                                                    
                                                                                                    
                                                                                                    
                           
<?xpacket end="w"?></metadata>
<defs>
    <style>
      .cls-1 {
        fill: #034488;
        fill-rule: evenodd;
      }
    </style>
  </defs>
  <path id="peoples" class="cls-1" d="M1016.06,1227.22l-4.24-1.85a0.817,0.817,0,0,1-.3-0.33h2.82a5.02,5.02,0,0,0,2.15-.3,1.263,1.263,0,0,0,.73-0.83,1.3,1.3,0,0,0-.19-1.1c-0.8-1.16-2.69-4.18-2.75-7.25,0-.06-0.17-5.28-5.29-5.32a6.409,6.409,0,0,0-2.09.37,3.569,3.569,0,0,0-.64-1.07,6.755,6.755,0,0,0-8.587,0,3.934,3.934,0,0,0-.906,2.85v2.32a1.734,1.734,0,0,0-.434,1.14v1.75a1.748,1.748,0,0,0,.649,1.36,9.128,9.128,0,0,0,1.518,3.15v1.45a1.151,1.151,0,0,1-.6,1.01l-3.866,2.12a3.946,3.946,0,0,0-2.037,3.46V1232h26v-1.61A3.53,3.53,0,0,0,1016.06,1227.22Zm-4.99,3.91h-18.2v-0.98a3.071,3.071,0,0,1,1.585-2.69l3.866-2.12a2.037,2.037,0,0,0,1.049-1.78v-1.76l-0.1-.12a8.155,8.155,0,0,1-1.478-3.08l-0.039-.17-0.148-.1a0.871,0.871,0,0,1-.4-0.73v-1.75a0.863,0.863,0,0,1,.29-0.64l0.143-.13v-2.72l0-.05a3.032,3.032,0,0,1,.7-2.19,5.936,5.936,0,0,1,7.275-.01,2.792,2.792,0,0,1,.63,1.25,0.292,0.292,0,0,0,.02.09c0,0.03.01,0.06,0.01,0.09s0.01,0.07.02,0.1,0.01,0.05.01,0.07a0.757,0.757,0,0,1,.01.15v0.01a0.708,0.708,0,0,1,.01.14v0.13a1.33,1.33,0,0,1-.01.17v2.77l0.14,0.13a0.853,0.853,0,0,1,.29.64v1.75a0.867,0.867,0,0,1-.61.83l-0.22.07-0.07.21a8.9,8.9,0,0,1-1.23,2.49,3.36,3.36,0,0,1-.36.47l-0.11.13v1.8a1.655,1.655,0,0,0,.03.32c0,0.03.01,0.05,0.01,0.07a2.5,2.5,0,0,0,.07.26,0.142,0.142,0,0,1,.02.06c0.04,0.09.08,0.18,0.12,0.26,0.01,0.01.01,0.02,0.02,0.03a1.659,1.659,0,0,0,.22.32l0.09,0.12h0.02a2.081,2.081,0,0,0,.51.37l4.14,2.09a3.047,3.047,0,0,1,1.69,2.74v0.89Zm6.06,0h-5.2v-0.89a3.928,3.928,0,0,0-2.16-3.53l-2.97-1.49a0.8,0.8,0,0,0,.02-0.55,0.741,0.741,0,0,0-.71-0.51h-0.96a1.173,1.173,0,0,1-.05-0.11l-0.06-.15a1.544,1.544,0,0,1-.04-0.3v-1.48c0.1-.12.2-0.26,0.31-0.41a9.869,9.869,0,0,0,1.28-2.53,1.733,1.733,0,0,0,1.01-1.58v-1.75a1.773,1.773,0,0,0-.43-1.14v-2.32a4.2,4.2,0,0,0-.04-0.94,5.261,5.261,0,0,1,1.86-.34c4.26,0.04,4.42,4.29,4.42,4.46,0.07,3.31,2.06,6.52,2.91,7.74a0.392,0.392,0,0,1,.06.36,0.4,0.4,0,0,1-.23.27,3.973,3.973,0,0,1-1.76.22h-2.99a0.815,0.815,0,0,0-.68.39,0.782,0.782,0,0,0-.03.77,1.765,1.765,0,0,0,.77.85l4.22,1.84a2.63,2.63,0,0,1,1.45,2.38v0.74Z" transform="translate(-992 -1208)"/>
</svg>
