<svg xmlns="http://www.w3.org/2000/svg" width="16" height="16" viewBox="0 0 16 16">
  <metadata><?xpacket begin="﻿" id="W5M0MpCehiHzreSzNTczkc9d"?>
<x:xmpmeta xmlns:x="adobe:ns:meta/" x:xmptk="Adobe XMP Core 5.6-c140 79.160451, 2017/05/06-01:08:21        ">
   <rdf:RDF xmlns:rdf="http://www.w3.org/1999/02/22-rdf-syntax-ns#">
      <rdf:Description rdf:about=""/>
   </rdf:RDF>
</x:xmpmeta>
                                                                                                    
                                                                                                    
                                                                                                    
                                                                                                    
                                                                                                    
                                                                                                    
                                                                                                    
                                                                                                    
                                                                                                    
                                                                                                    
                                                                                                    
                                                                                                    
                                                                                                    
                                                                                                    
                                                                                                    
                                                                                                    
                                                                                                    
                                                                                                    
                                                                                                    
                                                                                                    
                           
<?xpacket end="w"?></metadata>
<defs>
    <style>
      .cls-1 {
        fill: #e52929;
        fill-rule: evenodd;
      }
    </style>
  </defs>
  <path id="percent" class="cls-1" d="M927.123,1817.28l15.158-15.16,0.6,0.6-15.158,15.16Zm2.4-10.23a2.525,2.525,0,1,0-2.526-2.52A2.526,2.526,0,0,0,929.526,1807.05Zm0-4.21a1.685,1.685,0,1,1-1.684,1.69A1.69,1.69,0,0,1,929.526,1802.84Zm10.948,10.11a2.525,2.525,0,1,0,2.526,2.52A2.526,2.526,0,0,0,940.474,1812.95Zm0,4.21a1.685,1.685,0,1,1,1.684-1.69A1.691,1.691,0,0,1,940.474,1817.16Z" transform="translate(-927 -1802)"/>
</svg>
