<svg xmlns="http://www.w3.org/2000/svg" width="18" height="18" viewBox="0 0 18 18">
  <metadata><?xpacket begin="﻿" id="W5M0MpCehiHzreSzNTczkc9d"?>
<x:xmpmeta xmlns:x="adobe:ns:meta/" x:xmptk="Adobe XMP Core 5.6-c140 79.160451, 2017/05/06-01:08:21        ">
   <rdf:RDF xmlns:rdf="http://www.w3.org/1999/02/22-rdf-syntax-ns#">
      <rdf:Description rdf:about=""/>
   </rdf:RDF>
</x:xmpmeta>
                                                                                                    
                                                                                                    
                                                                                                    
                                                                                                    
                                                                                                    
                                                                                                    
                                                                                                    
                                                                                                    
                                                                                                    
                                                                                                    
                                                                                                    
                                                                                                    
                                                                                                    
                                                                                                    
                                                                                                    
                                                                                                    
                                                                                                    
                                                                                                    
                                                                                                    
                                                                                                    
                           
<?xpacket end="w"?></metadata>
<defs>
    <style>
      .cls-1 {
        fill: #ecf4ff;
        fill-rule: evenodd;
      }
    </style>
  </defs>
  <path id="phone" class="cls-1" d="M1379.46,3782.99a7.639,7.639,0,0,1-2.65-.56,22.02,22.02,0,0,1-11.26-11.25c-0.75-1.98-.75-3.61,0-4.36,0.1-.1.21-0.22,0.33-0.34a3.51,3.51,0,0,1,2.46-1.48,2.988,2.988,0,0,1,2.08,1.33c2.06,2.56,1.13,3.47.06,4.53l-0.19.19c-0.18.17-.51,0.98,2.58,4.07a17.131,17.131,0,0,0,2.55,2.19c0.43,0.28,1.21.71,1.52,0.39l0.2-.19c1.05-1.07,1.96-2,4.52.06a2.92,2.92,0,0,1,1.33,2.07,3.53,3.53,0,0,1-1.48,2.47c-0.12.11-.24,0.22-0.34,0.33A2.376,2.376,0,0,1,1379.46,3782.99Zm-11.19-17.39a3.243,3.243,0,0,0-1.96,1.3c-0.11.12-.22,0.24-0.33,0.35-0.56.56-.5,2.01,0.14,3.71a19.16,19.16,0,0,0,4.44,6.47,19.373,19.373,0,0,0,6.46,4.44c1.71,0.64,3.16.69,3.72,0.14,0.11-.11.23-0.22,0.35-0.34a3.129,3.129,0,0,0,1.3-2,2.455,2.455,0,0,0-1.11-1.63c-2.13-1.72-2.72-1.11-3.71-.11l-0.2.2c-0.47.47-1.24,0.36-2.28-.31a18.416,18.416,0,0,1-2.65-2.27c-2.56-2.56-3.38-4.13-2.58-4.93l0.19-.2c1.01-.98,1.61-1.58-0.1-3.71a2.434,2.434,0,0,0-1.63-1.1A0.09,0.09,0,0,0,1368.27,3765.6Z" transform="translate(-1365 -3765)"/>
</svg>
