<svg xmlns="http://www.w3.org/2000/svg" width="24" height="24" viewBox="0 0 24 24">
  <metadata><?xpacket begin="﻿" id="W5M0MpCehiHzreSzNTczkc9d"?>
<x:xmpmeta xmlns:x="adobe:ns:meta/" x:xmptk="Adobe XMP Core 5.6-c140 79.160451, 2017/05/06-01:08:21        ">
   <rdf:RDF xmlns:rdf="http://www.w3.org/1999/02/22-rdf-syntax-ns#">
      <rdf:Description rdf:about=""/>
   </rdf:RDF>
</x:xmpmeta>
                                                                                                    
                                                                                                    
                                                                                                    
                                                                                                    
                                                                                                    
                                                                                                    
                                                                                                    
                                                                                                    
                                                                                                    
                                                                                                    
                                                                                                    
                                                                                                    
                                                                                                    
                                                                                                    
                                                                                                    
                                                                                                    
                                                                                                    
                                                                                                    
                                                                                                    
                                                                                                    
                           
<?xpacket end="w"?></metadata>
<defs>
    <style>
      .cls-1 {
        fill: #034488;
        fill-rule: evenodd;
      }
    </style>
  </defs>
  <path id="print" class="cls-1" d="M1166,292.8a2,2,0,1,0-2-2A2,2,0,0,0,1166,292.8Zm0-3.2a1.2,1.2,0,1,1-1.2,1.2A1.2,1.2,0,0,1,1166,289.6Zm-3.2,7.6h-9.6a0.4,0.4,0,0,0,0,.8h9.6A0.4,0.4,0,0,0,1162.8,297.2Zm0,2h-9.6a0.4,0.4,0,0,0,0,.8h9.6A0.4,0.4,0,0,0,1162.8,299.2Zm3.6-12.4V280h-16.8v6.8H1146v13.6h2.4v1.2h1.2V304h16.8v-2.4h1.2v-1.2h2.4V286.8h-3.6Zm-16-6h15.2v6h-15.2v-6Zm-0.8,6.8h19.6V294h-22.4v-6.4h2.8Zm-0.4,13.2V298a0.4,0.4,0,0,0-.8,0v1.6h-1.6v-4.8h2.8v6h-0.4Zm16.4,2.4h-15.2v-8.4h15.2v8.4Zm2-3.6V298a0.4,0.4,0,1,0-.8,0v2.8h-0.4v-6h2.8v4.8h-1.6Z" transform="translate(-1146 -280)"/>
</svg>
