<svg xmlns="http://www.w3.org/2000/svg" width="34.09" height="40" viewBox="0 0 34.09 40">
  <metadata><?xpacket begin="﻿" id="W5M0MpCehiHzreSzNTczkc9d"?>
<x:xmpmeta xmlns:x="adobe:ns:meta/" x:xmptk="Adobe XMP Core 5.6-c140 79.160451, 2017/05/06-01:08:21        ">
   <rdf:RDF xmlns:rdf="http://www.w3.org/1999/02/22-rdf-syntax-ns#">
      <rdf:Description rdf:about=""/>
   </rdf:RDF>
</x:xmpmeta>
                                                                                                    
                                                                                                    
                                                                                                    
                                                                                                    
                                                                                                    
                                                                                                    
                                                                                                    
                                                                                                    
                                                                                                    
                                                                                                    
                                                                                                    
                                                                                                    
                                                                                                    
                                                                                                    
                                                                                                    
                                                                                                    
                                                                                                    
                                                                                                    
                                                                                                    
                                                                                                    
                           
<?xpacket end="w"?></metadata>
<defs>
    <style>
      .cls-1 {
        fill: #fff;
        fill-rule: evenodd;
      }
    </style>
  </defs>
  <path id="sertificate" class="cls-1" d="M1266.44,1089a0.433,0.433,0,0,1-.33-0.2l-6.17-10.59-6.18,10.49-0.01.01a0.349,0.349,0,0,1-.3.17,0.433,0.433,0,0,1-.33-0.2l-3.08-5.33h-6.74a0.422,0.422,0,0,1-.32-0.19,0.392,0.392,0,0,1-.01-0.35l0.01-.02,6.29-11.08-0.45-.19a1.234,1.234,0,0,1-.79-1.24l0.56-3.95-2.69-2.88a1.234,1.234,0,0,1,.02-1.64l2.7-2.81-0.47-3.91a1.239,1.239,0,0,1,.99-1.35l3.89-.68,1.93-3.45a1.164,1.164,0,0,1,.68-0.56,1.332,1.332,0,0,1,.34-0.05,1.124,1.124,0,0,1,.55.14h0.01l3.52,1.71,3.51-1.62h0.03l0.07-.03a1.375,1.375,0,0,1,.48-0.1,1.13,1.13,0,0,1,1.04.65l0.01,0.02,1.89,3.45,3.89,0.76a1.251,1.251,0,0,1,.95,1.31l-0.55,3.94,2.69,2.88a1.245,1.245,0,0,1-.02,1.64l-2.71,2.81,0.47,3.9a1.242,1.242,0,0,1-.69,1.23l-0.42.2,6.25,10.91,0.01,0.01a0.229,0.229,0,0,1-.02.29l-0.03.04-0.02.04a0.353,0.353,0,0,1-.31.17h-6.74l-3.09,5.47-0.01.01A0.349,0.349,0,0,1,1266.44,1089Zm-7.39-13.9,1.15,2.04,0.05,0.04a0.273,0.273,0,0,1,.05.12l0.02,0.04,6.12,10.53,2.89-5.1,0.01-.01a0.363,0.363,0,0,1,.3-0.16h6.35l-6.08-10.63-2.94.53-1.93,3.45a1.265,1.265,0,0,1-1.58.47l-3.51-1.7Zm-5.56,12.64,5.98-10.33-1.14-1.97-1.93.89h-0.03l-0.08.03a1.375,1.375,0,0,1-.48.1,1.14,1.14,0,0,1-1.04-.65v-0.01l-1.9-3.46-2.81-.49-6.12,10.75h6.34a0.433,0.433,0,0,1,.33.2Zm6.45-13.76a1.186,1.186,0,0,1,.53.13l0.01,0.01,3.7,1.79,2.02-3.62a1.241,1.241,0,0,1,.84-0.6l4.05-.67-0.49-4.12v-0.01a1.09,1.09,0,0,1,.32-0.96l2.89-2.96-2.85-3.05a1.136,1.136,0,0,1-.28-0.96l0.58-4.13-4.11-.81h-0.03a1.071,1.071,0,0,1-.75-0.55l-1.91-3.57h-0.39l-3.47,1.58-0.01.01a1.125,1.125,0,0,1-1.05,0l-0.02-.01-3.69-1.79-2.03,3.62a1.241,1.241,0,0,1-.84.6l-3.82.66-0.1.1a0.534,0.534,0,0,0-.16.38v0.03l0.45,3.71v0.01a1.06,1.06,0,0,1-.33.95l-2.84,2.96,2.79,3.05,0.01,0.01a1.111,1.111,0,0,1,.29.95l-0.59,4.13,4.16,0.77h0.02a1.07,1.07,0,0,1,.8.55l1.9,3.57h0.4l3.47-1.62,0.01-.01A1.112,1.112,0,0,1,1259.94,1073.98Zm0-3.54a7.64,7.64,0,1,1,7.69-7.64A7.667,7.667,0,0,1,1259.94,1070.44Zm0-14.52a6.88,6.88,0,1,0,6.93,6.88A6.9,6.9,0,0,0,1259.94,1055.92Z" transform="translate(-1242.94 -1049)"/>
</svg>
