<svg xmlns="http://www.w3.org/2000/svg" width="17" height="15" viewBox="0 0 17 15">
  <metadata><?xpacket begin="﻿" id="W5M0MpCehiHzreSzNTczkc9d"?>
<x:xmpmeta xmlns:x="adobe:ns:meta/" x:xmptk="Adobe XMP Core 5.6-c140 79.160451, 2017/05/06-01:08:21        ">
   <rdf:RDF xmlns:rdf="http://www.w3.org/1999/02/22-rdf-syntax-ns#">
      <rdf:Description rdf:about=""/>
   </rdf:RDF>
</x:xmpmeta>
                                                                                                    
                                                                                                    
                                                                                                    
                                                                                                    
                                                                                                    
                                                                                                    
                                                                                                    
                                                                                                    
                                                                                                    
                                                                                                    
                                                                                                    
                                                                                                    
                                                                                                    
                                                                                                    
                                                                                                    
                                                                                                    
                                                                                                    
                                                                                                    
                                                                                                    
                                                                                                    
                           
<?xpacket end="w"?></metadata>
<defs>
    <style>
      .cls-1 {
        fill: #faad3d;
        fill-rule: evenodd;
      }
    </style>
  </defs>
  <path id="star2" class="cls-1" d="M1334.98,2222.71a0.268,0.268,0,0,0-.24-0.19l-5.51-.74-2.46-4.62a0.308,0.308,0,0,0-.54,0l-2.46,4.62-5.51.74a0.268,0.268,0,0,0-.24.19,0.248,0.248,0,0,0,.07.28l3.99,3.6-0.94,5.08a0.255,0.255,0,0,0,.12.27,0.279,0.279,0,0,0,.18.06,0.371,0.371,0,0,0,.14-0.04l4.92-2.39,4.92,2.39a0.331,0.331,0,0,0,.32-0.02,0.271,0.271,0,0,0,.12-0.27l-0.94-5.08,3.99-3.6A0.248,0.248,0,0,0,1334.98,2222.71Z" transform="translate(-1318 -2217)"/>
</svg>
