<svg xmlns="http://www.w3.org/2000/svg" width="22" height="20" viewBox="0 0 22 20">
  <metadata><?xpacket begin="﻿" id="W5M0MpCehiHzreSzNTczkc9d"?>
<x:xmpmeta xmlns:x="adobe:ns:meta/" x:xmptk="Adobe XMP Core 5.6-c140 79.160451, 2017/05/06-01:08:21        ">
   <rdf:RDF xmlns:rdf="http://www.w3.org/1999/02/22-rdf-syntax-ns#">
      <rdf:Description rdf:about=""/>
   </rdf:RDF>
</x:xmpmeta>
                                                                                                    
                                                                                                    
                                                                                                    
                                                                                                    
                                                                                                    
                                                                                                    
                                                                                                    
                                                                                                    
                                                                                                    
                                                                                                    
                                                                                                    
                                                                                                    
                                                                                                    
                                                                                                    
                                                                                                    
                                                                                                    
                                                                                                    
                                                                                                    
                                                                                                    
                                                                                                    
                           
<?xpacket end="w"?></metadata>
<defs>
    <style>
      .cls-1 {
        fill: #2992d9;
        fill-rule: evenodd;
      }
    </style>
  </defs>
  <path id="star" class="cls-1" d="M1381.44,1820a0.4,0.4,0,0,1-.24-0.07,0.352,0.352,0,0,1-.15-0.37l1.22-6.77-5.16-4.79a0.359,0.359,0,0,1-.1-0.39,0.4,0.4,0,0,1,.32-0.25l7.12-.99,3.19-6.16a0.392,0.392,0,0,1,.35-0.21h0a0.408,0.408,0,0,1,.36.21l3.18,6.16,7.13,0.99a0.4,0.4,0,0,1,.32.25,0.377,0.377,0,0,1-.1.39l-5.16,4.79,1.22,6.78a0.368,0.368,0,0,1-.16.36,0.381,0.381,0,0,1-.41.03l-6.38-3.2-6.37,3.2A0.392,0.392,0,0,1,1381.44,1820Zm-3.21-12.01,4.73,4.4a0.375,0.375,0,0,1,.12.34l-1.12,6.21,5.85-2.93a0.4,0.4,0,0,1,.37,0l5.85,2.93-1.12-6.21a0.4,0.4,0,0,1,.11-0.34l4.74-4.4-6.54-.9a0.414,0.414,0,0,1-.3-0.21l-2.93-5.65-2.92,5.65a0.414,0.414,0,0,1-.3.21Z" transform="translate(-1377 -1800)"/>
</svg>
