<?xml version="1.0" encoding="utf-8"?>
<!-- Generator: Adobe Illustrator 22.0.1, SVG Export Plug-In . SVG Version: 6.00 Build 0)  -->
<svg version="1.1" id="Слой_1" xmlns="http://www.w3.org/2000/svg" xmlns:xlink="http://www.w3.org/1999/xlink" x="0px" y="0px"
	 viewBox="0 0 26 26" style="enable-background:new 0 0 26 26;" xml:space="preserve">
<style type="text/css">
	.st0{fill:#034488;}
</style>
<g>
	<path class="st0" d="M4,9c-2.2,0-4,1.8-4,4c0,2.2,1.8,4,4,4s4-1.8,4-4C8,10.8,6.2,9,4,9z M4,16c-1.7,0-3-1.3-3-3s1.3-3,3-3
		s3,1.3,3,3S5.7,16,4,16z"/>
	<path class="st0" d="M4,18c-2.2,0-4,1.8-4,4s1.8,4,4,4s4-1.8,4-4S6.2,18,4,18z M4,25c-1.7,0-3-1.3-3-3s1.3-3,3-3s3,1.3,3,3
		S5.7,25,4,25z"/>
	<path class="st0" d="M22,8c2.2,0,4-1.8,4-4s-1.8-4-4-4s-4,1.8-4,4S19.8,8,22,8z M22,1c1.7,0,3,1.3,3,3s-1.3,3-3,3s-3-1.3-3-3
		S20.3,1,22,1z"/>
	<path class="st0" d="M13,18c-2.2,0-4,1.8-4,4s1.8,4,4,4c2.2,0,4-1.8,4-4S15.2,18,13,18z M13,25c-1.7,0-3-1.3-3-3s1.3-3,3-3
		s3,1.3,3,3S14.7,25,13,25z"/>
	<path class="st0" d="M22,18c-2.2,0-4,1.8-4,4s1.8,4,4,4s4-1.8,4-4S24.2,18,22,18z M22,25c-1.7,0-3-1.3-3-3s1.3-3,3-3s3,1.3,3,3
		S23.7,25,22,25z"/>
	<path class="st0" d="M4,0C1.8,0,0,1.8,0,4s1.8,4,4,4s4-1.8,4-4S6.2,0,4,0z M4,7C2.3,7,1,5.7,1,4s1.3-3,3-3s3,1.3,3,3S5.7,7,4,7z"/>
	<path class="st0" d="M22,9c-2.2,0-4,1.8-4,4c0,2.2,1.8,4,4,4s4-1.8,4-4C26,10.8,24.2,9,22,9z M22,16c-1.7,0-3-1.3-3-3s1.3-3,3-3
		s3,1.3,3,3S23.7,16,22,16z"/>
	<path class="st0" d="M13,0c-2.2,0-4,1.8-4,4s1.8,4,4,4c2.2,0,4-1.8,4-4S15.2,0,13,0z M13,7c-1.7,0-3-1.3-3-3s1.3-3,3-3s3,1.3,3,3
		S14.7,7,13,7z"/>
	<path class="st0" d="M13,9c-2.2,0-4,1.8-4,4c0,2.2,1.8,4,4,4c2.2,0,4-1.8,4-4C17,10.8,15.2,9,13,9z M13,16c-1.7,0-3-1.3-3-3
		s1.3-3,3-3s3,1.3,3,3S14.7,16,13,16z"/>
</g>
</svg>
