<svg xmlns="http://www.w3.org/2000/svg" width="26" height="26" viewBox="0 0 26 26">
  <metadata><?xpacket begin="﻿" id="W5M0MpCehiHzreSzNTczkc9d"?>
<x:xmpmeta xmlns:x="adobe:ns:meta/" x:xmptk="Adobe XMP Core 5.6-c140 79.160451, 2017/05/06-01:08:21        ">
   <rdf:RDF xmlns:rdf="http://www.w3.org/1999/02/22-rdf-syntax-ns#">
      <rdf:Description rdf:about=""/>
   </rdf:RDF>
</x:xmpmeta>
                                                                                                    
                                                                                                    
                                                                                                    
                                                                                                    
                                                                                                    
                                                                                                    
                                                                                                    
                                                                                                    
                                                                                                    
                                                                                                    
                                                                                                    
                                                                                                    
                                                                                                    
                                                                                                    
                                                                                                    
                                                                                                    
                                                                                                    
                                                                                                    
                                                                                                    
                                                                                                    
                           
<?xpacket end="w"?></metadata>
<defs>
    <style>
      .cls-1 {
        fill: none;
        stroke: #034488;
        stroke-width: 1px;
        fill-rule: evenodd;
      }
    </style>
  </defs>
  <path id="tile" class="cls-1" d="M1483.5,1027a3.5,3.5,0,1,1-3.5,3.5A3.5,3.5,0,0,1,1483.5,1027Zm0,9a3.5,3.5,0,1,1-3.5,3.5A3.5,3.5,0,0,1,1483.5,1036Zm0,9a3.5,3.5,0,1,1-3.5,3.5A3.5,3.5,0,0,1,1483.5,1045Zm-9-18a3.5,3.5,0,1,1-3.5,3.5A3.5,3.5,0,0,1,1474.5,1027Zm0,9a3.5,3.5,0,1,1-3.5,3.5A3.5,3.5,0,0,1,1474.5,1036Zm0,9a3.5,3.5,0,1,1-3.5,3.5A3.5,3.5,0,0,1,1474.5,1045Zm-9-18a3.5,3.5,0,1,1-3.5,3.5A3.5,3.5,0,0,1,1465.5,1027Zm0,9a3.5,3.5,0,1,1-3.5,3.5A3.5,3.5,0,0,1,1465.5,1036Zm0,9a3.5,3.5,0,1,1-3.5,3.5A3.5,3.5,0,0,1,1465.5,1045Z" transform="translate(-1461.5 -1026.5)"/>
</svg>
