<svg xmlns="http://www.w3.org/2000/svg" width="19" height="24" viewBox="0 0 19 24">
  <metadata><?xpacket begin="﻿" id="W5M0MpCehiHzreSzNTczkc9d"?>
<x:xmpmeta xmlns:x="adobe:ns:meta/" x:xmptk="Adobe XMP Core 5.6-c140 79.160451, 2017/05/06-01:08:21        ">
   <rdf:RDF xmlns:rdf="http://www.w3.org/1999/02/22-rdf-syntax-ns#">
      <rdf:Description rdf:about=""/>
   </rdf:RDF>
</x:xmpmeta>
                                                                                                    
                                                                                                    
                                                                                                    
                                                                                                    
                                                                                                    
                                                                                                    
                                                                                                    
                                                                                                    
                                                                                                    
                                                                                                    
                                                                                                    
                                                                                                    
                                                                                                    
                                                                                                    
                                                                                                    
                                                                                                    
                                                                                                    
                                                                                                    
                                                                                                    
                                                                                                    
                           
<?xpacket end="w"?></metadata>
<defs>
    <style>
      .cls-1 {
        fill: #e52929;
        fill-rule: evenodd;
      }
    </style>
  </defs>
  <path id="trash" class="cls-1" d="M1356.6,282.44h-5.55a3.349,3.349,0,0,0-.72-1.916,1.656,1.656,0,0,0-1.25-.524h-3.96a1.65,1.65,0,0,0-1.24.524,3.349,3.349,0,0,0-.72,1.916h-4.76a0.407,0.407,0,0,0,0,.814h18.2A0.407,0.407,0,0,0,1356.6,282.44Zm-12.15-1.35a0.888,0.888,0,0,1,.67-0.277h3.96a0.9,0.9,0,0,1,.68.277,2.392,2.392,0,0,1,.49,1.35h-6.29A2.392,2.392,0,0,1,1344.45,281.09Zm-4.49,20.885A1.956,1.956,0,0,0,1341.9,304h11.2a1.954,1.954,0,0,0,1.94-2.017l0.72-17.915h-16.52Zm14.98-17.094-0.69,17.076a1.179,1.179,0,0,1-1.15,1.229h-11.2a1.19,1.19,0,0,1-1.15-1.237l-0.69-17.068h14.88Z" transform="translate(-1338 -280)"/>
</svg>
