<svg xmlns="http://www.w3.org/2000/svg" width="18.66" height="15.281" viewBox="0 0 18.66 15.281">
  <metadata><?xpacket begin="﻿" id="W5M0MpCehiHzreSzNTczkc9d"?>
<x:xmpmeta xmlns:x="adobe:ns:meta/" x:xmptk="Adobe XMP Core 5.6-c140 79.160451, 2017/05/06-01:08:21        ">
   <rdf:RDF xmlns:rdf="http://www.w3.org/1999/02/22-rdf-syntax-ns#">
      <rdf:Description rdf:about=""/>
   </rdf:RDF>
</x:xmpmeta>
                                                                                                    
                                                                                                    
                                                                                                    
                                                                                                    
                                                                                                    
                                                                                                    
                                                                                                    
                                                                                                    
                                                                                                    
                                                                                                    
                                                                                                    
                                                                                                    
                                                                                                    
                                                                                                    
                                                                                                    
                                                                                                    
                                                                                                    
                                                                                                    
                                                                                                    
                                                                                                    
                           
<?xpacket end="w"?></metadata>
<defs>
    <style>
      .cls-1 {
        fill: #00acee;
        fill-rule: evenodd;
      }
    </style>
  </defs>
  <path id="twitter" class="cls-1" d="M1519.01,261.308a7.673,7.673,0,0,1-2.2.608,3.837,3.837,0,0,0,1.68-2.136,7.625,7.625,0,0,1-2.43.937,3.822,3.822,0,0,0-6.62,2.641,3.64,3.64,0,0,0,.1.879,10.844,10.844,0,0,1-7.9-4.032,3.875,3.875,0,0,0,1.19,5.153,3.819,3.819,0,0,1-1.74-.483v0.048a3.854,3.854,0,0,0,3.07,3.785,3.7,3.7,0,0,1-1,.136,3.742,3.742,0,0,1-.72-0.069,3.828,3.828,0,0,0,3.57,2.68,7.637,7.637,0,0,1-4.75,1.652,7.758,7.758,0,0,1-.92-0.054,10.877,10.877,0,0,0,16.77-9.247c0-.168-0.01-0.334-0.01-0.5A7.892,7.892,0,0,0,1519.01,261.308Z" transform="translate(-1500.34 -259.5)"/>
</svg>
