<svg xmlns="http://www.w3.org/2000/svg" width="19" height="20" viewBox="0 0 19 20">
  <metadata><?xpacket begin="﻿" id="W5M0MpCehiHzreSzNTczkc9d"?>
<x:xmpmeta xmlns:x="adobe:ns:meta/" x:xmptk="Adobe XMP Core 5.6-c140 79.160451, 2017/05/06-01:08:21        ">
   <rdf:RDF xmlns:rdf="http://www.w3.org/1999/02/22-rdf-syntax-ns#">
      <rdf:Description rdf:about=""/>
   </rdf:RDF>
</x:xmpmeta>
                                                                                                    
                                                                                                    
                                                                                                    
                                                                                                    
                                                                                                    
                                                                                                    
                                                                                                    
                                                                                                    
                                                                                                    
                                                                                                    
                                                                                                    
                                                                                                    
                                                                                                    
                                                                                                    
                                                                                                    
                                                                                                    
                                                                                                    
                                                                                                    
                                                                                                    
                                                                                                    
                           
<?xpacket end="w"?></metadata>
<defs>
    <style>
      .cls-1 {
        fill: #603ca9;
        fill-rule: evenodd;
      }
    </style>
  </defs>
  <path id="up" class="cls-1" d="M1141.06,1819c-0.42,0-.87-0.02-1.39-0.06h-0.63a43.535,43.535,0,0,1-4.97-.31l-1.11-.14-0.09.07a1.425,1.425,0,0,1-.84.27h-2.57a1.475,1.475,0,0,1-1.46-1.49v-7a1.475,1.475,0,0,1,1.46-1.49h2.57a1.394,1.394,0,0,1,.69.18l0.28,0.16,0.13-.3a4.224,4.224,0,0,1,.77-1.18l0.02-.02,0.01-.01h0.01c1.64-1.3,3.45-6.23,3.53-6.44l0.03-.07-0.01-.08a2.768,2.768,0,0,1,.28-1.82,0.782,0.782,0,0,1,.59-0.27,2.348,2.348,0,0,1,1.9.94c0.61,0.85.63,2.16,0.07,3.9a7.968,7.968,0,0,0-.54,2.62l0.02,0.36,0.34-.08,0.63-.13h0.01l0.03-.01a13.3,13.3,0,0,1,2.02-.26c0.17-.01.33-0.01,0.49-0.01a3.849,3.849,0,0,1,2.68.76,2.032,2.032,0,0,1,.46,2.31l-0.06.16,0.1,0.14a2.328,2.328,0,0,1,.49,1.31,2.3,2.3,0,0,1-.52,1.51l-0.11.13,0.06,0.16a2.832,2.832,0,0,1,.16.78,2.5,2.5,0,0,1-.86,1.99l-0.12.11,0.02,0.16a2.361,2.361,0,0,1-.25,1.46,3.384,3.384,0,0,1-2.42,1.51A8.692,8.692,0,0,1,1141.06,1819Zm-1.36-.61c0.49,0.04.96,0.06,1.38,0.06a8.167,8.167,0,0,0,1.77-.17,2.874,2.874,0,0,0,2.06-1.24,1.824,1.824,0,0,0,.15-1.3v-0.01l-0.02-.05a0.28,0.28,0,0,1,.1-0.32,2.036,2.036,0,0,0,.91-1.75,1.959,1.959,0,0,0-.2-0.78v-0.01l-0.04-.08a0.273,0.273,0,0,1,.04-0.33,1.919,1.919,0,0,0,.61-1.39,1.953,1.953,0,0,0-.56-1.2v-0.01h-0.01a0.289,0.289,0,0,1-.05-0.36v-0.01a1.511,1.511,0,0,0-.19-1.95,3.48,3.48,0,0,0-2.36-.62,11.394,11.394,0,0,0-2.33.26,0.433,0.433,0,0,1-.05.01c-0.21.04-.45,0.09-0.74,0.15l-0.01.01h-0.02a0.587,0.587,0,0,1-.23.04,0.538,0.538,0,0,1-.39-0.15c-0.45-.4-0.36-1.53.29-3.53,0.5-1.54.5-2.72,0.01-3.41a1.8,1.8,0,0,0-1.43-.71h-0.17l-0.09.15a2.928,2.928,0,0,0-.09,1.45v0.01a0.277,0.277,0,0,1-.01.13c-0.71,1.98-2.29,5.63-3.73,6.8l-0.02.02-0.01.01a3.973,3.973,0,0,0-.86,1.61l-0.02.09,0.03,0.08a1.74,1.74,0,0,1,.06.45v7a1.655,1.655,0,0,1-.03.32l-0.07.33,0.77,0.09h0a43.01,43.01,0,0,0,4.88.31h0.67Zm-10.24-8.99a0.928,0.928,0,0,0-.92.94v7a0.928,0.928,0,0,0,.92.94h0.29v-0.01h2.28a0.924,0.924,0,0,0,.91-0.93v-7a0.926,0.926,0,0,0-.91-0.94h-2.57Z" transform="translate(-1128 -1799)"/>
</svg>
