<svg xmlns="http://www.w3.org/2000/svg" width="21.031" height="12" viewBox="0 0 21.031 12">
  <metadata><?xpacket begin="﻿" id="W5M0MpCehiHzreSzNTczkc9d"?>
<x:xmpmeta xmlns:x="adobe:ns:meta/" x:xmptk="Adobe XMP Core 5.6-c140 79.160451, 2017/05/06-01:08:21        ">
   <rdf:RDF xmlns:rdf="http://www.w3.org/1999/02/22-rdf-syntax-ns#">
      <rdf:Description rdf:about=""/>
   </rdf:RDF>
</x:xmpmeta>
                                                                                                    
                                                                                                    
                                                                                                    
                                                                                                    
                                                                                                    
                                                                                                    
                                                                                                    
                                                                                                    
                                                                                                    
                                                                                                    
                                                                                                    
                                                                                                    
                                                                                                    
                                                                                                    
                                                                                                    
                                                                                                    
                                                                                                    
                                                                                                    
                                                                                                    
                                                                                                    
                           
<?xpacket end="w"?></metadata>
<defs>
    <style>
      .cls-1 {
        fill: #ecf4ff;
        fill-rule: evenodd;
      }
    </style>
  </defs>
  <path id="vk" class="cls-1" d="M415.089,3826.63a28.782,28.782,0,0,1,2.058,2.09,6.148,6.148,0,0,1,.737,1.07,0.77,0.77,0,0,1-.465,1.2h-3.062a2.384,2.384,0,0,1-1.949-.8c-0.424-.44-0.817-0.9-1.225-1.35a2.835,2.835,0,0,0-.55-0.5,0.639,0.639,0,0,0-1.02.25,3.3,3.3,0,0,0-.322,1.45,0.819,0.819,0,0,1-.975.95,7.871,7.871,0,0,1-4.382-.95,9.784,9.784,0,0,1-2.947-2.79,37.228,37.228,0,0,1-3.88-6.98c-0.245-.55-0.066-0.84.535-0.85q1.5-.03,3,0a0.874,0.874,0,0,1,.831.62,18.539,18.539,0,0,0,2.032,3.8,3.108,3.108,0,0,0,.768.85,0.462,0.462,0,0,0,.792-0.23,2.666,2.666,0,0,0,.176-0.8,11.949,11.949,0,0,0-.049-2.79,1.165,1.165,0,0,0-.982-1.07c-0.293-.05-0.249-0.16-0.108-0.33a1.1,1.1,0,0,1,.939-0.47H408.5a0.829,0.829,0,0,1,.74.91l0,3.88a1.137,1.137,0,0,0,.488.99,0.687,0.687,0,0,0,.691-0.34,12.037,12.037,0,0,0,1.948-3.03c0.235-.47.436-0.97,0.631-1.46a0.755,0.755,0,0,1,.783-0.55l3.33,0.01a1.435,1.435,0,0,1,.294.02,0.58,0.58,0,0,1,.542.89,8.456,8.456,0,0,1-1.324,2.32c-0.555.77-1.149,1.52-1.7,2.3a1.057,1.057,0,0,0,.163,1.69h0Z" transform="translate(-397 -3819)"/>
</svg>
